<svg version="1.1" xmlns="http://www.w3.org/2000/svg" style="display: block;" viewBox="0 0 2048 2048" width="1024" height="1024" preserveAspectRatio="none"><path transform="translate(0,0)" fill="rgb(193,97,46)" d="M 336.106 737.164 C 337.242 737.083 338.38 737.015 339.518 736.961 C 358.216 736.201 381.047 736.775 399.945 736.789 L 513.507 736.869 L 859.339 736.886 L 1188.37 736.884 L 1294.48 736.829 C 1312.88 736.813 1331.37 736.58 1349.77 736.931 C 1379.44 737.497 1377.32 760.248 1377.28 782.097 C 1418.47 781.342 1462.18 782.063 1503.55 782.066 L 1766.03 781.965 C 1768 901.043 1539.97 1000.85 1441.36 1013.98 C 1421.34 1016.64 1397.72 1021.8 1377.58 1022.12 C 1376.13 1025.89 1374.11 1030.59 1372.07 1034.03 C 1369.18 1038.8 1364.86 1042.54 1359.72 1044.71 C 1348.95 1049.33 1330.44 1051.49 1318.29 1053.39 C 1264.88 1061.62 1190.4 1075.57 1160.63 1126.3 C 1117.19 1200.3 1193.73 1265.05 1250.25 1297.86 C 1285.89 1318.56 1322.03 1328.58 1359.29 1344.78 C 1365.55 1347.5 1375.89 1360.47 1376.33 1367.61 C 1377.98 1394.43 1376.83 1421.93 1377.08 1448.86 C 1377.14 1453.64 1376.96 1461.05 1375.68 1465.57 C 1372.05 1478.38 1359.81 1483.72 1347.4 1484.05 C 1318.83 1484.34 1290.51 1483.92 1262.06 1483.97 L 1182.13 1484.12 C 1168.22 1484.14 1151 1486.11 1137.61 1482.85 C 1122.99 1479.29 1110.07 1466.89 1097.13 1459.46 C 1084.27 1452.08 1069.38 1446.68 1055.22 1442.44 C 991.525 1423.39 873.293 1425.58 810.469 1447.61 C 789.234 1455.06 772.283 1467.19 752.763 1477.67 C 745.945 1481.33 739.884 1482.88 732.227 1483.53 C 713.228 1485.15 522.116 1485.1 514.846 1482.51 C 508.509 1480.26 502.991 1474.08 500.272 1468.1 C 496.585 1459.98 495.953 1374.39 499.721 1365.35 C 507.789 1346 532.977 1340.87 550.65 1334.37 C 562.015 1330.13 573.28 1325.62 584.436 1320.86 C 639.424 1296.92 703.268 1255.57 725.65 1197.54 C 737.961 1165.62 733.077 1133.74 719.248 1103.13 C 673.681 1002.24 531.574 920.598 431.975 884.09 C 413.038 877.148 393.51 870.392 373.989 865.275 C 361.314 861.953 347.369 860.406 335.215 855.523 C 328.964 853.011 323.499 849.215 320.957 842.814 C 316.094 830.566 315.357 761.536 320.595 749.966 C 323.735 743.03 329.303 739.872 336.106 737.164 z"/><path transform="translate(0,0)" fill="rgb(254,177,118)" d="M 933.573 782.44 C 1015.19 779.462 1099.49 783.632 1181.38 782.008 C 1228.69 781.07 1278.98 781.378 1326.14 783.282 C 1326.51 837.205 1322.32 891.917 1322.04 945.914 C 1321.97 959.626 1322.23 974.231 1321.2 987.785 L 1300.95 860.778 C 1298.04 842.87 1295.25 824.941 1292.59 806.994 C 1121.02 804.032 949.52 798.139 778.156 789.316 C 786.432 787.348 810.898 786.44 820.488 785.993 C 858.079 784.24 895.924 783.656 933.573 782.44 z"/><path transform="translate(0,0)" fill="rgb(254,177,118)" d="M 1402.03 817.755 C 1491.98 818.542 1581.91 820.324 1671.82 823.1 C 1674.41 823.403 1679.11 822.951 1679.73 825.69 C 1644.51 828.764 1607.4 834.338 1572.33 839.151 C 1515.53 847.137 1458.65 854.545 1401.7 861.374 C 1401.58 847.024 1401.91 832.147 1402.03 817.755 z"/><path transform="translate(0,0)" fill="rgb(254,177,118)" d="M 829.893 1260.23 L 830.214 1260.95 C 806.752 1289.02 780.618 1315.51 756.396 1342.94 C 749.278 1351.01 741.885 1359.24 734.403 1366.93 C 726.602 1366.89 717.824 1366.46 710.041 1365.85 C 669.332 1362.67 627.495 1361.69 586.965 1357.32 C 582.348 1357.15 577.162 1356.12 572.549 1355.37 C 588.129 1352.81 610.567 1352.16 626.702 1351.41 L 708.734 1347.79 C 720.466 1340.12 742.957 1321.77 755.228 1312.58 C 779.586 1294.39 804.486 1276.93 829.893 1260.23 z"/><path transform="translate(0,0)" fill="rgb(254,177,118)" d="M 1049.2 1261.89 C 1051.94 1262.87 1066.54 1272.95 1069.71 1275.07 C 1090.79 1289.28 1111.51 1304.02 1131.86 1319.27 C 1142.56 1327.27 1157.22 1339.23 1168.1 1345.84 C 1204.28 1346.92 1240.35 1349.15 1276.45 1351.93 C 1285.78 1352.65 1296.79 1353.27 1305.82 1354.92 C 1303.31 1356.23 1300.64 1356.11 1297.76 1356.31 C 1277.74 1358.83 1251.66 1360 1230.98 1361.42 C 1204.12 1363.25 1175.14 1366.09 1148.43 1367.13 C 1140.62 1360.24 1120.74 1338.28 1112.92 1329.74 C 1093.84 1308.92 1066.33 1283.1 1049.2 1261.89 z"/><path transform="translate(0,0)" fill="rgb(236,164,102)" d="M 1671.82 823.1 C 1680.95 822.915 1686.17 822.979 1695.21 823.867 L 1679.73 825.69 C 1679.11 822.951 1674.41 823.403 1671.82 823.1 z"/><path transform="translate(0,0)" fill="rgb(193,97,46)" d="M 551.404 392.498 L 553.295 394.034 C 558.386 426.985 570.796 458.445 596.286 480.761 C 617.431 499.274 638.988 504.036 665.203 511.241 C 652.522 514.464 639.914 517.465 628.131 522.35 C 583.996 540.647 562.64 582.318 553.337 626.705 C 553.132 626.923 552.927 627.142 552.721 627.36 C 547.04 609.844 544.063 594.804 534.577 578.46 C 509.363 535.018 481.248 523.87 436.401 511.08 C 493.586 503.141 536.207 467.825 547.261 409.985 C 548.307 404.513 549.938 397.904 551.404 392.498 z"/><path transform="translate(0,0)" fill="rgb(193,97,46)" d="M 682.62 545.718 C 684.98 548.145 686.957 581.303 707.759 598.371 C 723.662 611.419 739.805 611.526 747.315 616.753 L 746.686 617.779 L 741.918 618.29 C 730.802 619.527 720.225 623.737 711.299 630.477 C 694.722 643.175 686.105 665.157 683.677 685.31 L 683.502 686.818 C 679.561 683.868 677.303 666.508 674.465 659.931 C 664.856 637.663 645.864 619.183 620.567 618.023 C 618.707 617.937 619.597 618.295 618.028 616.957 C 623.912 612.985 641.4 608.731 647.685 604.674 C 673.017 588.323 675.181 570.967 682.62 545.718 z"/></svg>